<svg id="Layer_1" data-name="Layer 1" xmlns="http://www.w3.org/2000/svg" viewBox="0 0 603.51 138.89"><defs><style>.cls-1{fill:#fbc943;}.cls-2{fill:#fff;}</style></defs><path class="cls-1" d="M170.94,112.22q-12.44-10.83-13.2-30.79-.17-4.46-.16-14.13t.16-14.12q.76-19.5,13.43-30.1t34.32-10.6q14.59,0,25.42,4.76t16.58,12.14q5.76,7.36,6.07,15.2a3,3,0,0,1-1,2.3,3.37,3.37,0,0,1-2.38.92H227.76a5.51,5.51,0,0,1-2.46-.46,3.55,3.55,0,0,1-1.53-1.69,20.17,20.17,0,0,0-6.3-7.75q-4.31-3.3-12-3.3-18.27,0-19.19,19.34-.17,4.31-.16,13.36t.16,13.36q.91,20.28,19.65,20.27,9.06,0,14.51-4.68t5.46-14.36V79H211.48a3.58,3.58,0,0,1-2.76-1.15A4,4,0,0,1,207.64,75V63.62a4,4,0,0,1,1.08-2.84,3.58,3.58,0,0,1,2.76-1.15h38.7a3.61,3.61,0,0,1,2.76,1.15A4,4,0,0,1,254,63.62v17.5q0,13.06-6,22.5a38.26,38.26,0,0,1-17,14.44q-11,5-25.57,5Q183.38,123.05,170.94,112.22Z"/><path class="cls-1" d="M281.5,112.45q-12.44-10.59-13.2-31.17-.17-4.45-.16-13.21t.16-13.36q.76-20.26,13.43-31.25t33.86-11q21.2,0,33.94,11t13.36,31.25q.3,8.91.31,13.36t-.31,13.21q-.76,20.58-13.21,31.17t-34.09,10.6Q293.95,123.05,281.5,112.45ZM329,95.87q5-5.07,5.3-15.51.3-8.91.3-12.6,0-4-.3-12.59Q334,44.73,329,39.66T315.59,34.6q-8.29,0-13.28,5.06t-5.45,15.51q-.15,4.3-.16,12.59t.16,12.6q.47,10.44,5.37,15.51t13.36,5.06Q324,100.93,329,95.87Z"/><path class="cls-1" d="M382.16,120.36a3.67,3.67,0,0,1-1.15-2.69V17.86a3.61,3.61,0,0,1,1.15-2.77A3.84,3.84,0,0,1,384.85,14h46.83q19.35,0,28.79,7.91t9.45,22.49a21.24,21.24,0,0,1-3.92,13,24.9,24.9,0,0,1-8.83,7.75A26.55,26.55,0,0,1,472.07,89q0,15.35-10.14,24t-28.87,8.6H384.85A3.67,3.67,0,0,1,382.16,120.36Zm46.45-63.65q6.13,0,9.37-3.15a11.17,11.17,0,0,0,3.22-8.37A10.72,10.72,0,0,0,438,37.05Q434.76,34,428.61,34h-20V56.71ZM430,101.55q6.3,0,9.83-3.69a12.4,12.4,0,0,0,3.53-8.9,12.55,12.55,0,0,0-3.53-9.14q-3.54-3.6-9.83-3.61H408.65v25.34Z"/><path class="cls-1" d="M479.21,120.51a3,3,0,0,1-1-2.22,4.81,4.81,0,0,1,.15-1.39l36.09-98.58a5.57,5.57,0,0,1,2-3.07,6.17,6.17,0,0,1,4-1.23h22.73a6.21,6.21,0,0,1,4,1.23,5.55,5.55,0,0,1,2,3.07l35.94,98.58.3,1.39a3.07,3.07,0,0,1-1,2.22,3.24,3.24,0,0,1-2.38,1H563.13a4.76,4.76,0,0,1-4.91-3.22l-6-15.67h-41l-5.84,15.67q-1.23,3.22-5.07,3.22H481.43A3,3,0,0,1,479.21,120.51Zm66.87-40L531.8,40,517.52,80.51Z"/><circle class="cls-1" cx="77.95" cy="69.84" r="61.78"/><path class="cls-2" d="M111.6,31.93A16.52,16.52,0,0,0,95.07,48.45v2a35.58,35.58,0,0,0-34.24,0v-2A16.52,16.52,0,0,0,44.31,31.93a1.85,1.85,0,0,0-1.86,1.85V100a7.81,7.81,0,0,0,7.81,7.81h55.38a7.81,7.81,0,0,0,7.81-7.81V33.78A1.85,1.85,0,0,0,111.6,31.93ZM78,99.05A21.07,21.07,0,0,1,56.88,78h6.78l4.21,8.61,4-8.61H84.1l4.21,8.61,4-8.61H99A21.07,21.07,0,0,1,78,99.05Z"/></svg>